<svg xmlns="http://www.w3.org/2000/svg" viewBox="0 0 512 512">
  <rect width="512" height="512" rx="112" fill="#166534" />
  <path fill="white" d="M376 192h-24v-16c0-44.11-35.89-80-80-80H136c-44.11 0-80 35.89-80 80v200c0 44.11 35.89 80 80 80h240c44.11 0 80-35.89 80-80V272c0-44.11-35.89-80-80-80zm-40 144c-17.67 0-32-14.33-32-32s14.33-32 32-32 32 14.33 32 32-14.33 32-32 32z" />
  <path fill="white" opacity="0.6" d="M352 176H136c-26.47 0-48 21.53-48 48v24h264v-24c0-26.47-21.53-48-48-48zM136 128h136c26.47 0 48 21.53 48 48v16H112v-16c0-26.47 21.53-48 24-48z" />
</svg>
